# xmcd
# 
# Track frame offsets:
#     150
#     17770
#     33815
#     45590
#     62005
#     74495
#     91367
#     107152
#     121587
#     136030
#     152772
#     167982
#     183792
#     195790
#     212407
#     225362
# 
# Disc length: 3182
# 
# Revision: 9
# Processed by: cddbd v1.5.2PL0 Copyright (c) Steve Scherf et al.
# Submitted via: fre:ac v1.0.31
# 
DISCID=bf0c6c10
DTITLE=Various Artist - Die schönsten deutschen Country  and Trucker Songs Folge 1
DYEAR=1989
DGENRE=Country
TTITLE0=Jonny Hill - Deine Augen
TTITLE1=Truck Stop - Ich möcht' so gern Dave Dudley hör'n
TTITLE2=Greyhounds - Kättschn Quetschn
TTITLE3=Jonny Hill - Wenn du bei mir bist
TTITLE4=Boss Band - Country Music Familie
TTITLE5=Greyhounds - Hallo Taxi
TTITLE6=Jonny Hill - Teilen kann ich nicht
TTITLE7=Gunter Gabriel - Hey Boss, ich brauch mehr Geld
TTITLE8=Truck Stop - Big White Diesel
TTITLE9=Greyhounds - Hello Miss Walky
TTITLE10=Jonny Hill - Heute schon gelebt ?
TTITLE11=Boss Band - Western Willy
TTITLE12=Tom Astor - Freunde
TTITLE13=Frank Baum and Country Green - Rennen mit der Zeit
TTITLE14=Max Zwo - Tankstellen - Fee
TTITLE15=Jonny Hill - Ich bin einer so wie du
EXTD=YEAR: 1989
EXTT0=
EXTT1=
EXTT2=
EXTT3=
EXTT4=
EXTT5=
EXTT6=
EXTT7=
EXTT8=
EXTT9=
EXTT10=
EXTT11=
EXTT12=
EXTT13=
EXTT14=
EXTT15=
PLAYORDER=
